<svg xmlns="http://www.w3.org/2000/svg" viewBox="330 300 940 410" role="img" aria-labelledby="title description">
  <title id="title">Guardian monoline wordmark traced from the provided reference</title>
  <desc id="description">Custom centerline Bezier geometry; no font and no text rendering.</desc>
  <defs>
    <filter id="ambient-glow" x="-20%" y="-35%" width="140%" height="170%" color-interpolation-filters="sRGB">
      <feGaussianBlur stdDeviation="7" />
    </filter>
    <g id="guardian-main">
      <path id="guardian-trace-01" pathLength="498" d="M 544.0 522.0 C 543.5 521.8, 543.0 520.8, 541.0 521.0 C 539.0 521.2, 537.3 520.7, 532.0 523.0 C 526.7 525.3, 516.7 531.5, 509.0 535.0 C 501.3 538.5, 494.3 540.3, 486.0 544.0 C 477.7 547.7, 469.0 551.5, 459.0 557.0 C 449.0 562.5, 436.2 569.8, 426.0 577.0 C 415.8 584.2, 405.3 593.2, 398.0 600.0 C 390.7 606.8, 386.5 612.0, 382.0 618.0 C 377.5 624.0, 373.2 631.7, 371.0 636.0 C 368.8 640.3, 369.2 642.0, 369.0 644.0 C 368.8 646.0, 369.0 646.7, 370.0 648.0 C 371.0 649.3, 371.7 651.3, 375.0 652.0 C 378.3 652.7, 385.5 652.5, 390.0 652.0 C 394.5 651.5, 395.3 651.5, 402.0 649.0 C 408.7 646.5, 421.8 641.2, 430.0 637.0 C 438.2 632.8, 443.5 629.2, 451.0 624.0 C 458.5 618.8, 470.3 609.8, 475.0 606.0 C 479.7 602.2, 478.0 601.8, 479.0 601.0 C 480.0 600.2, 475.7 605.8, 481.0 601.0 C 486.3 596.2, 501.8 581.8, 511.0 572.0 C 520.2 562.2, 530.7 549.0, 536.0 542.0 C 541.3 535.0, 541.7 533.3, 543.0 530.0 C 544.3 526.7, 543.8 523.3, 544.0 522.0" />
      <path id="guardian-trace-02" pathLength="544" d="M 585.0 383.0 C 586.0 380.8, 590.2 374.2, 591.0 370.0 C 591.8 365.8, 591.0 360.5, 590.0 358.0 C 589.0 355.5, 588.3 355.7, 585.0 355.0 C 581.7 354.3, 578.8 352.7, 570.0 354.0 C 561.2 355.3, 541.7 360.2, 532.0 363.0 C 522.3 365.8, 520.3 367.0, 512.0 371.0 C 503.7 375.0, 492.7 380.2, 482.0 387.0 C 471.3 393.8, 457.0 404.7, 448.0 412.0 C 439.0 419.3, 433.0 425.8, 428.0 431.0 C 423.0 436.2, 422.8 436.0, 418.0 443.0 C 413.2 450.0, 403.2 465.5, 399.0 473.0 C 394.8 480.5, 394.2 484.2, 393.0 488.0 C 391.8 491.8, 391.3 492.0, 392.0 496.0 C 392.7 500.0, 395.7 508.7, 397.0 512.0 C 398.3 515.3, 398.0 514.5, 400.0 516.0 C 402.0 517.5, 405.8 519.8, 409.0 521.0 C 412.2 522.2, 412.3 522.8, 419.0 523.0 C 425.7 523.2, 440.7 523.0, 449.0 522.0 C 457.3 521.0, 458.8 521.0, 469.0 517.0 C 479.2 513.0, 497.7 504.7, 510.0 498.0 C 522.3 491.3, 535.0 482.7, 543.0 477.0 C 551.0 471.3, 553.8 466.5, 558.0 464.0 C 562.2 461.5, 566.7 460.0, 568.0 462.0 C 569.3 464.0, 567.7 468.8, 566.0 476.0 C 564.3 483.2, 559.3 500.2, 558.0 505.0" />
      <path id="guardian-trace-03" pathLength="22" d="M 558.0 505.0 C 556.2 507.7, 549.3 518.2, 547.0 521.0 C 544.7 523.8, 544.5 521.8, 544.0 522.0" />
      <path id="guardian-trace-04" pathLength="55" d="M 609.0 481.0 C 607.5 481.3, 603.3 481.2, 600.0 483.0 C 596.7 484.8, 594.3 488.3, 589.0 492.0 C 583.7 495.7, 573.2 502.8, 568.0 505.0 C 562.8 507.2, 559.7 505.0, 558.0 505.0" />
      <path id="guardian-trace-05" pathLength="78" d="M 609.0 481.0 C 608.5 484.3, 606.3 497.0, 606.0 501.0 C 605.7 505.0, 606.0 503.8, 607.0 505.0 C 608.0 506.2, 609.7 507.5, 612.0 508.0 C 614.3 508.5, 618.5 508.3, 621.0 508.0 C 623.5 507.7, 622.8 508.5, 627.0 506.0 C 631.2 503.5, 641.2 495.8, 646.0 493.0 C 650.8 490.2, 654.3 489.7, 656.0 489.0" />
      <path id="guardian-trace-06" pathLength="13" d="M 615.0 471.0 L 609.0 481.0" />
      <path id="guardian-trace-07" pathLength="59" d="M 656.0 489.0 C 656.0 491.5, 655.0 500.8, 656.0 504.0 C 657.0 507.2, 659.3 507.5, 662.0 508.0 C 664.7 508.5, 667.5 508.7, 672.0 507.0 C 676.5 505.3, 685.3 499.7, 689.0 498.0 C 692.7 496.3, 693.2 497.2, 694.0 497.0" />
      <path id="guardian-trace-08" pathLength="20" d="M 664.0 473.0 L 656.0 489.0" />
      <path id="guardian-trace-09" pathLength="90" d="M 736.0 496.0 C 736.8 493.3, 740.3 483.8, 741.0 480.0 C 741.7 476.2, 741.2 475.0, 740.0 473.0 C 738.8 471.0, 736.5 468.8, 734.0 468.0 C 731.5 467.2, 727.7 467.7, 725.0 468.0 C 722.3 468.3, 720.8 468.7, 718.0 470.0 C 715.2 471.3, 711.2 473.3, 708.0 476.0 C 704.8 478.7, 701.3 482.5, 699.0 486.0 C 696.7 489.5, 694.8 495.2, 694.0 497.0" />
      <path id="guardian-trace-10" pathLength="51" d="M 736.0 496.0 C 735.0 496.2, 732.7 495.7, 730.0 497.0 C 727.3 498.3, 723.5 502.2, 720.0 504.0 C 716.5 505.8, 712.5 507.5, 709.0 508.0 C 705.5 508.5, 701.2 507.5, 699.0 507.0 C 696.8 506.5, 696.8 506.7, 696.0 505.0 C 695.2 503.3, 694.3 498.3, 694.0 497.0" />
      <path id="guardian-trace-11" pathLength="55" d="M 777.0 490.0 C 775.7 490.3, 771.3 490.7, 769.0 492.0 C 766.7 493.3, 766.5 495.7, 763.0 498.0 C 759.5 500.3, 752.0 504.8, 748.0 506.0 C 744.0 507.2, 741.0 506.7, 739.0 505.0 C 737.0 503.3, 736.5 497.5, 736.0 496.0" />
      <path id="guardian-trace-12" pathLength="14" d="M 777.0 490.0 L 775.0 503.0" />
      <path id="guardian-trace-13" pathLength="5" d="M 780.0 487.0 L 777.0 490.0" />
      <path id="guardian-trace-14" pathLength="55" d="M 823.0 465.0 C 820.2 465.8, 811.8 466.7, 806.0 470.0 C 800.2 473.3, 792.3 482.2, 788.0 485.0 C 783.7 487.8, 781.3 486.7, 780.0 487.0" />
      <path id="guardian-trace-15" pathLength="16" d="M 783.0 472.0 C 782.7 472.7, 781.5 473.5, 781.0 476.0 C 780.5 478.5, 780.2 485.2, 780.0 487.0" />
      <path id="guardian-trace-16" pathLength="128" d="M 881.0 469.0 C 879.5 468.5, 875.0 466.5, 872.0 466.0 C 869.0 465.5, 866.0 465.5, 863.0 466.0 C 860.0 466.5, 857.5 467.3, 854.0 469.0 C 850.5 470.7, 845.7 472.7, 842.0 476.0 C 838.3 479.3, 834.0 485.8, 832.0 489.0 C 830.0 492.2, 830.2 492.5, 830.0 495.0 C 829.8 497.5, 830.0 502.0, 831.0 504.0 C 832.0 506.0, 832.8 506.7, 836.0 507.0 C 839.2 507.3, 846.2 507.0, 850.0 506.0 C 853.8 505.0, 855.5 503.8, 859.0 501.0 C 862.5 498.2, 867.8 491.2, 871.0 489.0 C 874.2 486.8, 876.8 488.2, 878.0 488.0" />
      <path id="guardian-trace-17" pathLength="20" d="M 881.0 469.0 C 881.0 470.5, 881.5 474.8, 881.0 478.0 C 880.5 481.2, 878.5 486.3, 878.0 488.0" />
      <path id="guardian-trace-18" pathLength="69" d="M 878.0 488.0 C 878.2 490.5, 878.0 499.8, 879.0 503.0 C 880.0 506.2, 881.5 506.3, 884.0 507.0 C 886.5 507.7, 891.3 507.3, 894.0 507.0 C 896.7 506.7, 895.7 507.7, 900.0 505.0 C 904.3 502.3, 915.5 493.7, 920.0 491.0 C 924.5 488.3, 925.8 489.3, 927.0 489.0" />
      <path id="guardian-trace-19" pathLength="95" d="M 915.0 388.0 C 911.8 395.5, 901.2 419.8, 896.0 433.0 C 890.8 446.2, 886.5 461.0, 884.0 467.0 C 881.5 473.0, 881.5 468.7, 881.0 469.0" />
      <path id="guardian-trace-20" pathLength="22" d="M 936.0 471.0 L 927.0 489.0" />
      <path id="guardian-trace-21" pathLength="63" d="M 927.0 489.0 C 927.0 491.2, 926.8 499.3, 927.0 502.0 C 927.2 504.7, 927.2 504.0, 928.0 505.0 C 928.8 506.0, 929.2 507.7, 932.0 508.0 C 934.8 508.3, 940.7 508.5, 945.0 507.0 C 949.3 505.5, 954.0 500.7, 958.0 499.0 C 962.0 497.3, 967.2 497.3, 969.0 497.0" />
      <path id="guardian-trace-22" pathLength="89" d="M 1011.0 495.0 C 1011.8 492.8, 1015.2 485.5, 1016.0 482.0 C 1016.8 478.5, 1016.8 476.2, 1016.0 474.0 C 1015.2 471.8, 1013.7 470.0, 1011.0 469.0 C 1008.3 468.0, 1004.8 466.7, 1000.0 468.0 C 995.2 469.3, 986.7 473.7, 982.0 477.0 C 977.3 480.3, 974.2 485.3, 972.0 488.0 C 969.8 490.7, 969.5 491.5, 969.0 493.0 C 968.5 494.5, 969.0 496.3, 969.0 497.0" />
      <path id="guardian-trace-23" pathLength="50" d="M 1011.0 495.0 C 1010.2 495.2, 1010.3 493.8, 1006.0 496.0 C 1001.7 498.2, 990.5 506.2, 985.0 508.0 C 979.5 509.8, 975.5 507.7, 973.0 507.0 C 970.5 506.3, 970.7 505.7, 970.0 504.0 C 969.3 502.3, 969.2 498.2, 969.0 497.0" />
      <path id="guardian-trace-24" pathLength="53" d="M 1053.0 491.0 C 1051.7 491.3, 1047.7 491.5, 1045.0 493.0 C 1042.3 494.5, 1040.5 497.8, 1037.0 500.0 C 1033.5 502.2, 1027.7 505.0, 1024.0 506.0 C 1020.3 507.0, 1017.0 506.7, 1015.0 506.0 C 1013.0 505.3, 1012.7 503.8, 1012.0 502.0 C 1011.3 500.2, 1011.2 496.2, 1011.0 495.0" />
      <path id="guardian-trace-25" pathLength="13" d="M 1053.0 491.0 L 1051.0 503.0" />
      <path id="guardian-trace-26" pathLength="6" d="M 1056.0 489.0 L 1053.0 491.0" />
      <path id="guardian-trace-27" pathLength="230" d="M 1235.0 483.0 C 1231.5 484.7, 1220.0 490.5, 1214.0 493.0 C 1208.0 495.5, 1206.5 496.0, 1199.0 498.0 C 1191.5 500.0, 1177.2 503.5, 1169.0 505.0 C 1160.8 506.5, 1158.2 506.7, 1150.0 507.0 C 1141.8 507.3, 1127.5 507.7, 1120.0 507.0 C 1112.5 506.3, 1108.0 504.8, 1105.0 503.0 C 1102.0 501.2, 1102.0 499.3, 1102.0 496.0 C 1102.0 492.7, 1104.5 487.2, 1105.0 483.0 C 1105.5 478.8, 1105.5 473.5, 1105.0 471.0 C 1104.5 468.5, 1105.0 468.2, 1102.0 468.0 C 1099.0 467.8, 1091.3 468.7, 1087.0 470.0 C 1082.7 471.3, 1079.8 473.2, 1076.0 476.0 C 1072.2 478.8, 1067.3 484.8, 1064.0 487.0 C 1060.7 489.2, 1057.3 488.7, 1056.0 489.0" />
      <path id="guardian-trace-28" pathLength="18" d="M 1059.0 473.0 L 1056.0 489.0" />
      <path id="guardian-i-dot" pathLength="24" d="M 945 447 C 941 444, 942 442, 946 442 C 950 442, 951 446, 948 450 C 946 452, 943 451, 945 447" />
    </g>
  </defs>
  <rect x="330" y="300" width="940" height="410" fill="#02060B" />
  <g fill="none" stroke="#73CFFF" stroke-width="12" stroke-linecap="round" stroke-linejoin="round" opacity="0.24" filter="url(#ambient-glow)">
    <use href="#guardian-main" />
  </g>
  <g fill="none" stroke="#E3F5FF" stroke-width="8" stroke-linecap="round" stroke-linejoin="round">
    <use href="#guardian-main" />
  </g>
</svg>
